<svg width="71" height="68" viewBox="0 0 71 68" fill="none" xmlns="http://www.w3.org/2000/svg">
<path d="M69.8669 51.8786C69.5486 51.0199 68.7119 50.5014 67.8292 50.4849C63.4452 50.5608 59.4749 50.0258 56.7644 49.5205C54.8284 53.4804 51.7866 56.8326 48.092 59.2301C47.1338 59.8576 46.1133 60.4091 45.0469 60.8847C53.2174 66.6115 62.3194 67.7609 65.9097 67.992C67.5504 68.144 68.7612 66.1822 67.8719 64.7917L64.2197 58.4505L69.227 54.2694C69.926 53.6881 70.1852 52.7237 69.8669 51.8815L69.8669 51.8786Z" fill="#B18300"/>
<path d="M56.5009 38.5681C56.5009 26.7448 46.9456 17.124 35.1954 17.124C6.93026 18.2998 6.9395 58.837 35.1954 60.0097C46.9423 60.0097 56.5009 50.3922 56.5009 38.5656V38.5681ZM43.9627 45.9034C44.5697 48.8163 41.1867 51.2868 38.6206 49.8105L35.4869 48.1558C35.3032 48.0502 35.0768 48.0502 34.893 48.1558L31.7593 49.8105C29.1966 51.2835 25.8365 48.8097 26.4173 45.9034L27.0243 42.3794C27.0539 42.1812 26.9784 41.9666 26.8274 41.8113L24.3008 39.331C22.122 37.323 23.3886 33.33 26.3385 33.0063L29.8398 32.501C30.053 32.4713 30.2368 32.3326 30.3254 32.1476L31.8939 28.9473C32.5173 27.6758 33.7807 26.8798 35.1949 26.8798C36.6092 26.8798 37.8725 27.6758 38.496 28.9473L40.0645 32.1476C40.1563 32.3326 40.3368 32.468 40.5501 32.501L44.0513 33.0063C46.9783 33.3366 48.281 37.323 46.089 39.331L43.5493 41.8113C43.3984 41.9633 43.336 42.1779 43.3656 42.3794L43.9595 45.9034H43.9627Z" fill="#B18300"/>
<path d="M14.8237 52.2608C14.2298 51.3889 13.6982 50.4674 13.2421 49.5195C10.5317 50.0248 6.5613 50.5599 2.1941 50.4839C1.28192 50.4542 0.445172 51.0189 0.123611 51.8942C-0.181553 52.7528 0.0940781 53.7172 0.776595 54.2688L5.78389 58.45L2.13172 64.7747C1.2523 66.1849 2.43032 68.1368 4.08083 67.9915C7.68705 67.7603 16.7862 66.6143 24.9596 60.8841C20.8547 59.0412 17.327 55.9827 14.8237 52.2608Z" fill="#B18300"/>
<path d="M43.9371 36.4833C43.8912 36.3313 43.7534 36.0836 43.4187 36.0407L39.9175 35.5354C37.3613 35.2811 36.6131 32.1832 35.5795 30.3138C35.2842 29.8019 34.7033 29.8118 34.4245 30.3138L32.856 33.5009C31.8584 35.8722 28.6591 35.6477 26.5854 36.0439C26.2342 36.0902 26.1128 36.3346 26.0669 36.4865C26.021 36.6252 25.975 36.8993 26.2342 37.1437L28.7609 39.6241C30.6838 41.3348 29.486 44.3106 29.217 46.4243C29.1743 46.999 29.6239 47.3127 30.1456 47.0981C35.0546 44.3436 34.9594 44.3766 39.8387 47.0981C40.3768 47.3193 40.8264 46.9957 40.7673 46.4078L40.1734 42.9004C39.6221 40.4069 42.3227 38.6861 43.7664 37.1405C44.0092 36.8961 43.9797 36.6187 43.9338 36.4833L43.9371 36.4833Z" fill="#B18300"/>
<path d="M41.9782 5.35508C41.9423 5.23087 41.8347 5.02834 41.5735 4.99324L38.8402 4.58009C36.8448 4.37216 36.2607 1.8393 35.4538 0.310881C35.2233 -0.107668 34.7699 -0.0995662 34.5521 0.310881L33.3277 2.91666C32.549 4.85549 30.0514 4.67189 28.4326 4.99589C28.1585 5.0337 28.0637 5.23352 28.0278 5.35774C27.992 5.47115 27.9561 5.69527 28.1585 5.8951L30.1309 7.92303C31.632 9.32177 30.697 11.7548 30.4869 13.483C30.4536 13.9528 30.8046 14.2094 31.2119 14.0339C35.044 11.7818 34.9697 11.8088 38.7787 14.0339C39.1988 14.2148 39.5498 13.9502 39.5037 13.4695L39.04 10.6018C38.6097 8.56307 40.7179 7.15618 41.8449 5.89245C42.0345 5.69263 42.0114 5.4658 41.9756 5.35509L41.9782 5.35508Z" fill="#B18300"/>
<path d="M55.9844 11.8768C55.9588 11.7881 55.882 11.6434 55.6953 11.6184L53.743 11.3232C52.3177 11.1747 51.9005 9.36554 51.3242 8.27382C51.1595 7.97485 50.8356 7.98064 50.6801 8.27382L49.8055 10.1351C49.2493 11.52 47.4653 11.3888 46.309 11.6203C46.1132 11.6473 46.0455 11.79 46.0199 11.8787C45.9943 11.9597 45.9686 12.1198 46.1132 12.2625L47.5221 13.7111C48.5943 14.7102 47.9264 16.448 47.7764 17.6825C47.7526 18.0181 48.0033 18.2013 48.2942 18.0759C51.0314 16.4673 50.9784 16.4866 53.6991 18.0759C53.9992 18.2052 54.2498 18.0162 54.2169 17.6728L53.8857 15.6245C53.5783 14.1682 55.0842 13.1633 55.8892 12.2606C56.0246 12.1179 56.0082 11.9559 55.9825 11.8768L55.9844 11.8768Z" fill="#B18300"/>
<path d="M23.9844 10.871C23.9588 10.7822 23.882 10.6376 23.6953 10.6125L21.743 10.3174C20.3177 10.1689 19.9005 8.35968 19.3242 7.26796C19.1595 6.96899 18.8356 6.97478 18.6801 7.26796L17.8055 9.12923C17.2493 10.5141 15.4653 10.383 14.309 10.6144C14.1132 10.6414 14.0455 10.7841 14.0199 10.8729C13.9943 10.9539 13.9686 11.114 14.1132 11.2567L15.5221 12.7052C16.5943 13.7043 15.9264 15.4422 15.7764 16.6766C15.7526 17.0122 16.0033 17.1955 16.2942 17.0701C19.0314 15.4615 18.9784 15.4807 21.6991 17.0701C21.9992 17.1993 22.2498 17.0103 22.2169 16.667L21.8857 14.6186C21.5783 13.1624 23.0842 12.1575 23.8892 11.2548C24.0246 11.1121 24.0082 10.95 23.9825 10.871L23.9844 10.871Z" fill="#B18300"/>
</svg>
