<svg width="155" height="37" viewBox="0 0 155 37" fill="none" xmlns="http://www.w3.org/2000/svg">
<path d="M129.736 31.1125H132.233V14.385H129.736V31.1125ZM152.224 20.4111L149.362 27.6628H149.276L146.306 20.4111H143.616L148.072 30.5465L145.531 36.1847H148.135L155 20.4116L152.224 20.4111ZM138.064 29.2124C137.248 29.2124 136.107 28.8031 136.107 27.7919C136.107 26.5008 137.528 26.0059 138.753 26.0059C139.85 26.0059 140.368 26.2422 141.034 26.5652C140.84 28.1148 139.506 29.2124 138.064 29.2124ZM138.366 20.0452C136.559 20.0452 134.687 20.8417 133.912 22.6062L136.128 23.5313C136.602 22.6062 137.483 22.3052 138.409 22.3052C139.7 22.3052 141.013 23.0792 141.034 24.4569V24.6289C140.582 24.3706 139.613 23.9834 138.431 23.9834C136.041 23.9834 133.61 25.2957 133.61 27.749C133.61 29.987 135.569 31.429 137.763 31.429C139.441 31.429 140.368 30.6758 140.947 29.7931H141.034V31.0851H143.445V24.6716C143.445 21.702 141.227 20.0452 138.366 20.0452ZM122.936 22.4473H119.385V16.7139H122.936C124.803 16.7139 125.863 18.2589 125.863 19.5806C125.863 20.8768 124.803 22.4473 122.936 22.4473ZM122.872 14.3854H116.89V31.1129H119.386V24.7758H122.872C125.639 24.7758 128.359 22.773 128.359 19.5812C128.359 16.3899 125.639 14.3854 122.872 14.3854ZM90.2512 29.2152C88.5264 29.2152 87.0828 27.7706 87.0828 25.7883C87.0828 23.7828 88.5264 22.3178 90.2512 22.3178C91.954 22.3178 93.2904 23.7829 93.2904 25.7883C93.2904 27.7706 91.954 29.2152 90.2512 29.2152ZM93.1179 21.3474H93.0316C92.4714 20.6794 91.3931 20.0758 90.0358 20.0758C87.19 20.0758 84.582 22.5766 84.582 25.7883C84.582 28.978 87.19 31.4569 90.0358 31.4569C91.3931 31.4569 92.4714 30.8532 93.0316 30.1638H93.1179V30.9823C93.1179 33.1602 91.954 34.3236 90.0787 34.3236C88.5488 34.3236 87.6003 33.2244 87.212 32.2977L85.0353 33.2029C85.6598 34.7112 87.3191 36.5657 90.0788 36.5657C93.0108 36.5657 95.4897 34.8408 95.4897 30.6372V20.4205H93.118L93.1179 21.3474ZM97.2144 31.112H99.7138V14.3845H97.2144V31.112ZM103.4 25.5939C103.336 23.3951 105.104 22.2745 106.375 22.2745C107.367 22.2745 108.207 22.7705 108.488 23.4813L103.4 25.5939ZM111.16 23.6966C110.686 22.4256 109.242 20.0758 106.289 20.0758C103.357 20.0758 100.921 22.3821 100.921 25.7664C100.921 28.9566 103.336 31.457 106.568 31.457C109.176 31.457 110.686 29.8624 111.311 28.9352L109.371 27.6416C108.724 28.5903 107.841 29.2153 106.568 29.2153C105.297 29.2153 104.392 28.6332 103.81 27.4907L111.418 24.3438L111.16 23.6966ZM50.5389 21.8219V24.236H56.3156C56.1431 25.594 55.6904 26.5853 55.0006 27.2753C54.1596 28.1156 52.8447 29.0428 50.5388 29.0428C46.982 29.0428 44.2016 26.1761 44.2016 22.6195C44.2016 19.0628 46.982 16.1957 50.5388 16.1957C52.4573 16.1957 53.8581 16.9503 54.8928 17.9203L56.5961 16.2171C55.1515 14.8378 53.2334 13.7816 50.5388 13.7816C45.6665 13.7816 41.5711 17.7478 41.5711 22.6195C41.5711 27.4906 45.6665 31.457 50.5388 31.457C53.1682 31.457 55.1516 30.5946 56.7033 28.9781C58.2985 27.3829 58.7944 25.1413 58.7944 23.3304C58.7944 22.7706 58.7509 22.2532 58.6648 21.8219H50.5389ZM65.3627 29.2152C63.6379 29.2152 62.1505 27.7926 62.1505 25.7664C62.1505 23.7186 63.6379 22.3179 65.3627 22.3179C67.0868 22.3179 68.5742 23.7186 68.5742 25.7664C68.5742 27.7926 67.0868 29.2152 65.3627 29.2152ZM65.3627 20.0758C62.2147 20.0758 59.65 22.4683 59.65 25.7664C59.65 29.0428 62.2147 31.457 65.3627 31.457C68.5095 31.457 71.0747 29.0428 71.0747 25.7664C71.0747 22.4683 68.5095 20.0758 65.3627 20.0758ZM77.8232 29.2152C76.0996 29.2152 74.6117 27.7926 74.6117 25.7664C74.6117 23.7186 76.0997 22.3179 77.8232 22.3179C79.5481 22.3179 81.035 23.7186 81.035 25.7664C81.035 27.7926 79.5481 29.2152 77.8232 29.2152ZM77.8232 20.0758C74.6764 20.0758 72.1118 22.4683 72.1118 25.7664C72.1118 29.0428 74.6764 31.457 77.8232 31.457C80.9713 31.457 83.5359 29.0428 83.5359 25.7664C83.5359 22.4683 80.9713 20.0758 77.8232 20.0758Z" fill="white"/>
<path d="M14.3771 16.9628L0.133278 32.0817C0.133814 32.0848 0.134884 32.0874 0.135386 32.0906C0.572233 33.7323 2.07176 34.9412 3.85138 34.9412C4.56278 34.9412 5.2307 34.7488 5.8035 34.4112L5.84899 34.3845L21.883 25.1322L14.3771 16.9628Z" fill="#EB3131"/>
<path d="M28.788 14.3877L28.7744 14.3784L21.852 10.3653L14.053 17.3052L21.8791 25.1303L28.765 21.1572C29.9722 20.5054 30.7918 19.2327 30.7918 17.7651C30.7918 16.308 29.9833 15.0416 28.788 14.3877Z" fill="#F6B60B"/>
<path d="M0.130636 3.38586C0.0450067 3.70162 0 4.03237 0 4.37583V31.0922C0 31.4351 0.0444756 31.7669 0.131179 32.0816L14.8667 17.3491L0.130636 3.38586Z" fill="#5778C5"/>
<path d="M14.4835 17.7329L21.8566 10.362L5.84056 1.07617C5.25841 0.727487 4.57896 0.526254 3.85191 0.526254C2.07229 0.526254 0.570742 1.73729 0.133814 3.38093C0.133278 3.38254 0.133278 3.38364 0.133278 3.38505L14.4835 17.7329Z" fill="#3BAD49"/>
<path d="M50.0731 4.06024H46.1699V5.02613H49.0948C49.0153 5.81434 48.7017 6.43315 48.1728 6.88262C47.6439 7.33218 46.9686 7.5579 46.17 7.5579C45.294 7.5579 44.5518 7.2527 43.9436 6.64648C43.3476 6.02766 43.0446 5.26244 43.0446 4.34051C43.0446 3.41865 43.3476 2.65342 43.9436 2.03465C44.5518 1.42841 45.294 1.12523 46.17 1.12523C46.6195 1.12523 47.0481 1.20257 47.441 1.37196C47.8341 1.54121 48.1497 1.77749 48.3965 2.08068L49.1386 1.33851C48.802 0.955851 48.3756 0.663228 47.8465 0.449962C47.3176 0.236686 46.7657 0.134329 46.1698 0.134329C45.0013 0.134329 44.0104 0.539867 43.2013 1.34898C42.3922 2.16006 41.9866 3.1594 41.9866 4.34053C41.9866 5.52166 42.3922 6.52316 43.2013 7.33229C44.0104 8.14123 45.0013 8.54694 46.1698 8.54694C47.397 8.54694 48.3755 8.15385 49.1281 7.35517C49.7908 6.69047 50.1294 5.79151 50.1294 4.66677C50.1294 4.47651 50.1065 4.27352 50.0731 4.06024ZM51.5852 0.313947V8.367H56.2868V7.3781H52.62V4.82347H55.9274V3.85758H52.62V1.30496H56.2868V0.313917L51.5852 0.313947ZM62.8797 1.30499V0.313947H57.3458V1.30499H59.5954V8.36698H60.6302V1.30499H62.8797ZM67.8897 0.313947H66.8549V8.367H67.8897V0.313947ZM74.7201 1.30499V0.313947H69.1864V1.30499H71.4358V8.36698H72.4706V1.30499H74.7201ZM85.1627 1.36145C84.364 0.539807 83.3856 0.134258 82.217 0.134258C81.0463 0.134258 80.0679 0.539797 79.2693 1.34891C78.4706 2.14755 78.0777 3.1489 78.0777 4.34046C78.0777 5.53203 78.4707 6.53353 79.2693 7.33222C80.0679 8.14116 81.0463 8.54687 82.217 8.54687C83.3751 8.54687 84.364 8.14119 85.1627 7.33222C85.9613 6.53358 86.3542 5.53213 86.3542 4.34046C86.3542 3.15933 85.9613 2.15994 85.1627 1.36145ZM80.0115 2.03458C80.6073 1.42834 81.339 1.12516 82.217 1.12516C83.0929 1.12516 83.8247 1.42835 84.41 2.03458C85.0058 2.63039 85.2984 3.40798 85.2984 4.34044C85.2984 5.27502 85.0058 6.05052 84.41 6.6464C83.8247 7.25264 83.0929 7.55783 82.217 7.55783C81.339 7.55783 80.6072 7.25263 80.0115 6.6464C79.4281 6.03803 79.1355 5.27501 79.1355 4.34044C79.1355 3.408 79.4281 2.64291 80.0115 2.03458ZM88.8128 3.35169L88.769 1.79826H88.8128L92.9062 8.36692H93.987V0.313866H92.9522V5.02604L92.996 6.57947H92.9522L89.0386 0.313866H87.778V8.36692H88.8128V3.35169Z" fill="white" stroke="white" stroke-width="0.26666" stroke-miterlimit="10"/>
</svg>
