<svg width="87" height="60" viewBox="0 0 87 60" fill="none" xmlns="http://www.w3.org/2000/svg">
<path d="M84.495 9.39595C83.9989 7.57977 83.0318 5.92406 81.6901 4.59355C80.3483 3.26304 78.6786 2.3041 76.847 1.81215C70.3505 0.0576118 44.8238 0 43.234 0H43.1389C42.315 0 16.0647 0.0837988 9.46254 1.86976C7.63238 2.36162 5.96395 3.31998 4.62315 4.64954C3.28234 5.97909 2.31588 7.63352 1.81985 9.44833C-0.208335 21.264 -0.995315 39.265 1.87267 50.6041C2.36796 52.4206 3.33474 54.0768 4.67663 55.4074C6.01853 56.7381 7.68868 57.6967 9.52064 58.1879C16.0172 59.9476 41.5438 60 43.1337 60H43.2868C44.8766 60 70.4086 59.9476 76.8998 58.1879C78.7318 57.6967 80.402 56.7381 81.7439 55.4074C83.0857 54.0768 84.0525 52.4206 84.5478 50.6041C86.6869 38.7727 87.3471 20.7874 84.495 9.39595Z" fill="#FF0000"/>
<path d="M34.5625 42.8584L56.9465 30.0005L34.5625 17.1426V42.8584Z" fill="white"/>
</svg>
