<svg width="70" height="70" viewBox="0 0 70 70" fill="none" xmlns="http://www.w3.org/2000/svg">
<path fill-rule="evenodd" clip-rule="evenodd" d="M35.5769 69.9966C54.6388 69.687 70 54.137 70 35C70 15.6716 54.3284 0 35 0C15.6716 0 0 15.6716 0 35C0 54.3284 15.6716 70 35 70C35.1384 70 35.2734 70 35.4118 69.9967C34.9341 69.9605 34.8023 69.5223 35.1812 68.5702C35.448 67.8916 35.9389 66.9889 36.4759 65.9973C37.8991 63.3749 39.6683 60.12 38.6041 58.6836C38.1429 58.0675 37.876 57.547 37.652 57.1056C37.1546 56.1403 36.8614 55.5638 35.1812 55.2244C32.7335 54.7303 31.2674 51.7652 32.7335 49.2945C34.2028 46.8237 34.6903 45.8353 34.2028 45.3412C33.7119 44.847 29.8014 40.8937 27.8445 40.8937C25.8876 40.8937 22.4647 37.4346 20.9987 35.9521C20.4386 35.3887 20.0236 34.5355 19.6118 33.6987C18.9463 32.3348 18.2973 31.0104 17.0882 31.0104C15.1313 31.0104 9.26399 30.5163 10.2424 24.5863C11.2175 18.6563 9.75152 15.197 7.79466 16.6796C7.5344 16.8773 7.26096 17.0914 6.98423 17.3056C5.19864 18.6925 3.36034 20.1223 4.63864 17.7108C6.32539 14.5251 15.131 6.79671 16.1102 8.27852C17.0887 9.761 18.0638 10.7493 20.9992 10.2552C22.2412 10.0444 23.3053 9.30642 24.3825 8.5586C25.8518 7.54065 27.3376 6.50946 29.3143 6.79612C29.993 6.89166 30.9219 6.97072 31.9433 7.05637C36.0613 7.40558 41.6421 7.87669 38.1137 10.2553C33.7123 13.2203 32.7339 14.7027 34.2033 15.6911C35.6693 16.6794 40.0706 17.6678 40.0706 15.1969C40.0706 12.7261 41.5367 9.76112 43.006 12.232C43.4738 13.0193 43.7901 13.7079 44.0569 14.2778C44.6203 15.4967 44.9398 16.1853 45.938 16.1853C47.4074 16.1853 52.7839 20.1386 50.3394 20.1386C49.7992 20.1386 49.305 20.0892 48.8635 20.0463C47.3185 19.8948 46.429 19.8058 46.429 22.1152C46.429 24.7442 43.7374 24.6519 42.1067 24.5992C41.8958 24.5926 41.7048 24.586 41.5368 24.586C40.0707 24.586 38.1138 25.5744 38.1138 27.0569C38.1138 27.7454 37.4846 28.4339 36.8059 29.1719C36.0252 30.0218 35.1818 30.9377 35.1818 31.9985C35.1818 32.519 35.2147 33.1054 35.2477 33.6655C35.3366 35.2271 35.4124 36.5515 34.6909 35.4577C34.4866 35.148 34.3054 34.8383 34.1308 34.5419C33.4687 33.4218 32.9185 32.4927 31.7589 32.4927C31.4656 32.4927 31.1527 32.4532 30.8397 32.4137C29.5878 32.2555 28.3359 32.0974 28.3359 34.4694C28.3359 37.4344 28.3359 38.4227 30.2895 38.4227C30.787 38.4227 31.38 38.3898 31.9631 38.3601C33.6696 38.2679 35.2971 38.1789 34.2033 38.9169C32.734 39.9052 32.2464 41.8818 33.7124 42.3761C34.4372 42.6198 34.9215 43.3841 35.2872 43.9574C35.6627 44.5471 35.9098 44.9391 36.1602 44.3527C36.4864 43.3644 37.4319 41.3877 38.6047 41.3877C40.0707 41.3877 41.0491 40.8936 41.5367 40.3994C42.0276 39.9052 43.0061 40.8936 43.4936 41.3877C43.6452 41.5393 44.1228 41.5525 44.7652 41.5689C46.2115 41.6019 48.4978 41.6579 49.8518 43.3644C50.6886 44.4252 50.8105 45.3937 50.9027 46.1515C51.0279 47.1662 51.107 47.8119 52.7839 47.8119C55.7192 47.8119 57.6761 49.7886 55.7192 51.2711C55.1855 51.6763 54.5826 52.0058 53.9831 52.3319C52.382 53.205 50.8303 54.0549 50.8303 56.2128C50.8303 58.6408 45.2594 63.0553 41.6291 65.931C40.8252 66.5701 40.1136 67.1301 39.5832 67.5814C37.9031 68.9948 36.384 69.9208 35.5769 69.9966Z" fill="#D34900"/>
</svg>
