<svg width="30" height="30" viewBox="0 0 30 30" fill="none" xmlns="http://www.w3.org/2000/svg">
<path d="M30 14.9995C30 6.71527 23.2843 -0.000469208 15 -0.000469208C6.71574 -0.000469208 0 6.71527 0 14.9995C0 22.0342 4.8429 27.9368 11.3764 29.5578V19.5833H8.28324V14.9995H11.3764V13.0244C11.3764 7.91887 13.6868 5.55247 18.6992 5.55247C19.6495 5.55247 21.2893 5.73877 21.9601 5.92513V10.0804C21.606 10.0431 20.9911 10.0244 20.2271 10.0244C17.7676 10.0244 16.8172 10.9561 16.8172 13.3784V14.9995H21.7168L20.8751 19.5833H16.8172V29.8896C24.2444 28.9926 30 22.6686 30 14.9995Z" fill="#0866FF"/>
<path d="M20.8731 19.5828L21.7148 14.999H16.8153V13.3779C16.8153 10.9556 17.7656 10.024 20.2252 10.024C20.9891 10.024 21.604 10.0426 21.9581 10.0798V5.92464C21.2873 5.73828 19.6475 5.55192 18.6973 5.55192C13.6849 5.55192 11.3744 7.91838 11.3744 13.0239V14.999H8.28125V19.5828H11.3744V29.5573C12.535 29.8452 13.7485 29.999 14.998 29.999C15.6133 29.999 16.2195 29.9611 16.8153 29.8892V19.5828H20.8731Z" fill="white"/>
</svg>
