<svg width="70" height="70" viewBox="0 0 70 70" fill="none" xmlns="http://www.w3.org/2000/svg">
<path fill-rule="evenodd" clip-rule="evenodd" d="M4.37536 23.4961C5.53555 23.4959 6.64814 23.0349 7.46844 22.2145C8.28873 21.394 8.74956 20.2814 8.74956 19.1212V14.9336L24.1837 30.3717C25.0042 31.1922 26.117 31.6533 27.2774 31.6533C28.4378 31.6534 29.5507 31.1925 30.3713 30.3721C31.1918 29.5516 31.6529 28.4387 31.653 27.2783C31.653 26.1179 31.1921 25.0051 30.3717 24.1845L14.9336 8.74956H19.1181C19.6974 8.75729 20.2726 8.64984 20.8101 8.43347C21.3476 8.21709 21.8368 7.89609 22.2493 7.48911C22.6617 7.08212 22.9892 6.59726 23.2127 6.06267C23.4363 5.52808 23.5514 4.95441 23.5514 4.37498C23.5514 3.79554 23.4363 3.22187 23.2127 2.68728C22.9892 2.15269 22.6617 1.66783 22.2493 1.26085C21.8368 0.853861 21.3476 0.532862 20.8101 0.316485C20.2726 0.100108 19.6974 -0.00733676 19.1181 0.000388917H4.37536C3.21518 0.000388898 2.10251 0.461216 1.28206 1.28151C0.46162 2.10181 0.000595171 3.21441 0.000388917 4.37459V19.1212C0.000388917 20.2815 0.461322 21.3943 1.28179 22.2147C2.10226 23.0352 3.21505 23.4961 4.37536 23.4961ZM42.2871 32.0882C42.8617 32.0891 43.4307 31.9763 43.9614 31.7563C44.4922 31.5363 44.9741 31.2135 45.3796 30.8064L61.2462 14.9399V19.1243C61.2615 20.2746 61.7292 21.3726 62.5481 22.1806C63.367 22.9887 64.4711 23.4417 65.6215 23.4417C66.7719 23.4417 67.8761 22.9887 68.695 22.1806C69.5138 21.3726 69.9816 20.2746 69.9969 19.1243V4.37459C69.9967 3.21494 69.5361 2.10282 68.7163 1.28261C67.8965 0.462404 66.7847 0.00121353 65.625 0.000388917H50.8784C50.299 -0.00733676 49.7239 0.100108 49.1864 0.316485C48.6488 0.532862 48.1597 0.853861 47.7472 1.26085C47.3348 1.66783 47.0073 2.15269 46.7838 2.68728C46.5602 3.22187 46.4451 3.79554 46.4451 4.37498C46.4451 4.95441 46.5602 5.52808 46.7838 6.06267C47.0073 6.59726 47.3348 7.08212 47.7472 7.48911C48.1597 7.89609 48.6488 8.21709 49.1864 8.43347C49.7239 8.64984 50.299 8.75729 50.8784 8.74956H55.0667L39.1963 24.6161C38.5854 25.2283 38.1697 26.0077 38.0015 26.8559C37.8333 27.7041 37.9202 28.5832 38.2512 29.3821C38.5823 30.181 39.1426 30.8639 39.8615 31.3445C40.5803 31.8252 41.4255 32.0821 42.2903 32.0828L42.2871 32.0882ZM4.37536 70H19.1212C19.6957 70 20.2646 69.8868 20.7954 69.667C21.3262 69.4471 21.8085 69.1249 22.2147 68.7186C22.621 68.3123 22.9433 67.8301 23.1631 67.2993C23.383 66.7685 23.4961 66.1996 23.4961 65.625C23.4961 65.0505 23.383 64.4816 23.1631 63.9508C22.9433 63.42 22.621 62.9377 22.2147 62.5314C21.8085 62.1252 21.3262 61.8029 20.7954 61.5831C20.2646 61.3632 19.6957 61.25 19.1212 61.25H14.9336L30.3717 45.8151C31.1921 44.9946 31.653 43.8817 31.653 42.7213C31.6529 41.5609 31.1918 40.448 30.3713 39.6276C29.5507 38.8071 28.4378 38.3462 27.2774 38.3463C26.117 38.3463 25.0042 38.8074 24.1837 39.6279L8.74956 55.0621V50.8784C8.75729 50.2991 8.64984 49.7239 8.43347 49.1864C8.21709 48.6489 7.89609 48.1597 7.4891 47.7472C7.08212 47.3348 6.59726 47.0073 6.06267 46.7838C5.52808 46.5602 4.95441 46.4451 4.37498 46.4451C3.79554 46.4451 3.22187 46.5602 2.68728 46.7838C2.15269 47.0073 1.66783 47.3348 1.26085 47.7472C0.853861 48.1597 0.532862 48.6489 0.316485 49.1864C0.100108 49.7239 -0.00733676 50.2991 0.000388917 50.8784V65.625C0.000595129 66.7853 0.461595 67.8979 1.28202 68.7184C2.10244 69.5388 3.21511 69.9998 4.37536 70ZM39.1932 45.3804C38.7798 44.9757 38.4507 44.4932 38.2251 43.9605C37.9994 43.4279 37.8816 42.8558 37.8785 42.2774C37.8754 41.6989 37.987 41.1256 38.2069 40.5906C38.4268 40.0556 38.7506 39.5695 39.1596 39.1604C39.5686 38.7514 40.0547 38.4275 40.5897 38.2075C41.1247 37.9875 41.698 37.8759 42.2764 37.8789C42.8549 37.8819 43.427 37.9997 43.9596 38.2253C44.4923 38.4509 44.9749 38.7798 45.3796 39.1932L61.2462 55.0597V50.8784C61.2615 49.7281 61.7292 48.6301 62.5481 47.8221C63.367 47.0141 64.4711 46.561 65.6215 46.561C66.7719 46.561 67.8761 47.0141 68.695 47.8221C69.5138 48.6301 69.9816 49.7281 69.9969 50.8784V65.625C69.9967 66.7847 69.5361 67.8969 68.7164 68.7173C67.8966 69.5376 66.7847 69.999 65.625 70H50.8784C49.7181 70 48.6053 69.5391 47.7849 68.7186C46.9644 67.8981 46.5035 66.7853 46.5035 65.625C46.5035 64.4647 46.9644 63.3519 47.7849 62.5314C48.6053 61.711 49.7181 61.25 50.8784 61.25H55.0667L39.1932 45.3804Z" fill="#008D15"/>
</svg>
