<svg width="60" height="45" viewBox="0 0 60 45" fill="none" xmlns="http://www.w3.org/2000/svg">
<g clip-path="url(#clip0_1_1342)">
<mask id="mask0_1_1342" style="mask-type:luminance" maskUnits="userSpaceOnUse" x="0" y="0" width="60" height="45">
<path d="M0 0H60V45H0V0Z" fill="white"/>
</mask>
<g mask="url(#mask0_1_1342)">
<path d="M0 0H60V45H0V0Z" fill="#CC0000"/>
<path d="M0 0H60V3.21562H0V0Z" fill="#CC0000"/>
<path d="M0 3.21484H60V6.43047H0V3.21484Z" fill="white"/>
<path d="M0 6.42969H60V9.64531H0V6.42969Z" fill="#CC0000"/>
<path d="M0 9.64844H60V12.8453H0V9.64844Z" fill="white"/>
<path d="M0 12.8516H60V16.0672H0V12.8516Z" fill="#CC0000"/>
<path d="M0 16.0703H60V19.2859H0V16.0703Z" fill="white"/>
<path d="M0 19.2852H60V22.5008H0V19.2852Z" fill="#CC0000"/>
<path d="M0 22.5H60V25.7156H0V22.5Z" fill="white"/>
<path d="M0 25.7148H60V28.9305H0V25.7148Z" fill="#CC0000"/>
<path d="M0 28.9297H60V32.1453H0V28.9297Z" fill="white"/>
<path d="M0 32.1484H60V35.3453H0V32.1484Z" fill="#CC0000"/>
<path d="M0 35.3516H60V38.5672H0V35.3516Z" fill="white"/>
<path d="M0 38.5703H60V41.7859H0V38.5703Z" fill="#CC0000"/>
<path d="M0 41.7852H60V45.0008H0V41.7852Z" fill="white"/>
<path d="M0 0.046875H30V25.7625H0V0.046875Z" fill="#000066"/>
<path d="M19.4516 6.92018L20.0141 10.7358L22.1703 7.5483L21.0078 11.2233L24.3359 9.2733L21.7016 12.0858L25.5453 11.7858L21.9547 13.1733L25.5453 14.5608L21.7016 14.2608L24.3359 17.0733L21.0078 15.1233L22.1609 18.8077L20.0047 15.6108L19.4422 19.4264L18.8891 15.6108L16.7328 18.7983L17.8953 15.1233L14.5672 17.0733L17.1922 14.2608L13.3484 14.5608L16.9484 13.1733L13.3578 11.7858L17.2016 12.0858L14.5672 9.2733L17.8953 11.2233L16.7328 7.53893L18.8891 10.7358L19.4516 6.92018ZM16.3297 7.07955C15.3145 6.62794 14.2026 6.43724 13.095 6.52481C11.9874 6.61237 10.9192 6.97542 9.98763 7.58095C9.05605 8.18647 8.29062 9.01526 7.76093 9.99194C7.23123 10.9686 6.95409 12.0622 6.95469 13.1733C6.95409 14.2844 7.23123 15.378 7.76093 16.3547C8.29062 17.3314 9.05605 18.1601 9.98763 18.7657C10.9192 19.3712 11.9874 19.7342 13.095 19.8218C14.2026 19.9094 15.3145 19.7187 16.3297 19.2671C15.2089 20.0722 13.8877 20.5524 12.5115 20.655C11.1353 20.7575 9.75745 20.4784 8.52969 19.8483C7.30333 19.2173 6.2747 18.2604 5.55688 17.0828C4.83906 15.9052 4.45985 14.5525 4.46094 13.1733C4.4614 11.7945 4.84193 10.4425 5.56073 9.26588C6.27953 8.08926 7.30877 7.13356 8.53536 6.5038C9.76194 5.87404 11.1384 5.59459 12.5134 5.69616C13.8885 5.79774 15.209 6.2764 16.3297 7.07955Z" fill="#FFCC00"/>
</g>
</g>
<defs>
<clipPath id="clip0_1_1342">
<rect width="60" height="45" fill="white"/>
</clipPath>
</defs>
</svg>
