<svg width="154" height="20" viewBox="0 0 154 20" fill="none" xmlns="http://www.w3.org/2000/svg">
<path d="M10.0613 0C9.63144 0.000689206 9.202 0.0277814 8.77543 0.0811115L8.32424 0.139681L9.30634 1.97807L9.44771 1.96757C9.65226 1.95255 9.8598 1.94503 10.0658 1.94503C11.5988 1.93556 13.1026 2.36321 14.4007 3.17772C15.6987 3.99224 16.7369 5.15978 17.3935 6.5432C18.05 7.92661 18.2976 9.46841 18.1071 10.9875C17.9165 12.5065 17.2958 13.9397 16.3179 15.1187L17.294 16.9481C19.1129 15.092 20.1298 12.5971 20.126 10C20.1215 4.48634 15.608 0 10.0613 0Z" fill="white"/>
<path d="M10.0601 18.0552C8.41852 18.0598 6.81475 17.563 5.46397 16.6314L10.2045 7.73527L13.4998 14.0165H15.7888L10.185 3.63644L9.09759 5.61451L3.85471 15.176C3.01109 14.1788 2.42356 12.9913 2.14298 11.7163C1.86239 10.4413 1.89721 9.11717 2.24441 7.85863C2.59162 6.60008 3.24074 5.44501 4.1356 4.49341C5.03046 3.54181 6.14407 2.82235 7.38005 2.39733L6.45509 0.664064C4.56139 1.3875 2.93128 2.66637 1.77913 4.33248C0.626976 5.99859 0.0067451 7.97394 0 9.99872C0 15.5139 4.51195 19.9987 10.0601 19.9987C12.118 20.005 14.1274 19.3754 15.8129 18.1964L14.8879 16.4631C13.49 17.4947 11.7983 18.0526 10.0601 18.0552Z" fill="white"/>
<path d="M8.4258 14.0119L10.1794 10.5664L11.9316 14.0119H8.4258Z" fill="white"/>
<path d="M38.0514 14.2813H30.918L29.7479 16.8346H26.961L33.0807 3.27345H35.8871L42.0068 16.8346H39.2004L38.0514 14.2813ZM34.4839 6.12567L31.9587 11.8977H37.0257L34.4839 6.12567Z" fill="white"/>
<path d="M52.3155 12.8418H48.4562V16.834H45.8829V3.27735C48.0276 3.27735 50.1708 3.25782 52.3155 3.25782C58.9796 3.25782 58.9992 12.8418 52.3155 12.8418ZM48.4562 10.4988H52.3155C55.6092 10.4988 55.5896 5.69249 52.3155 5.69249H48.4562V10.4988Z" fill="white"/>
<path d="M68.4132 12.8418H64.5539V16.834H61.9806V3.27735C64.1253 3.27735 66.2685 3.25782 68.4132 3.25782C75.0788 3.25782 75.0984 12.8418 68.4132 12.8418ZM64.5539 10.4988H68.4132C71.7069 10.4988 71.6873 5.69249 68.4132 5.69249H64.5539V10.4988Z" fill="white"/>
<path d="M102.535 3.25782H105.108V16.8385H103.51V16.8565L96.3371 7.69459V16.8385H93.7698V3.27735H95.8558L102.541 11.6883L102.535 3.25782Z" fill="white"/>
<path d="M113.925 5.60087H109.59V3.27735H120.817V5.60087H116.49V16.8385H113.925V5.60087Z" fill="white"/>
<path d="M137.675 3.29688V11.0665C137.675 15.0767 135.2 17.1299 131.77 17.1299C128.496 17.1299 125.707 15.1533 125.707 11.0665V3.29688H128.264V11.0665C128.264 13.5072 129.667 14.8049 131.792 14.8049C133.918 14.8049 135.125 13.3915 135.125 11.0665V3.29688H137.675Z" fill="white"/>
<path d="M151.524 6.55088C151.057 5.77587 149.771 5.03991 148.289 5.03991C146.379 5.03991 145.463 5.83444 145.463 6.84226C145.463 8.0243 146.867 8.35323 148.503 8.54698C151.348 8.89544 154 9.63139 154 12.8666C154 15.89 151.311 17.1877 148.27 17.1877C145.483 17.1877 143.338 16.3346 142.325 13.8549L144.469 12.751C145.071 14.2424 146.652 14.9018 148.309 14.9018C149.926 14.9018 151.446 14.34 151.446 12.8666C151.446 11.5884 150.102 11.0643 148.288 10.872C145.501 10.5431 142.928 9.80561 142.928 6.76566C142.928 3.97502 145.695 2.83203 148.21 2.81251C150.335 2.81251 152.537 3.4133 153.57 5.50552L151.524 6.55088Z" fill="white"/>
<path d="M78.0392 16.8385H88.2513V14.3438H78.0392V16.8385Z" fill="white"/>
<path d="M88.2513 5.75708V3.27735H78.0392V5.75708H88.2513Z" fill="white"/>
<path d="M80.5921 8.87502H78.0353V11.2271H87.9752V8.87502H80.5921Z" fill="white"/>
</svg>
