<svg width="100" height="100" viewBox="0 0 100 100" fill="none" xmlns="http://www.w3.org/2000/svg">
<path opacity="0.4" d="M49.875 91.6663C72.8869 91.6663 91.5417 73.0115 91.5417 49.9997C91.5417 26.9878 72.8869 8.33301 49.875 8.33301C26.8631 8.33301 8.20833 26.9878 8.20833 49.9997C8.20833 73.0115 26.8631 91.6663 49.875 91.6663Z" fill="white"/>
<path d="M62.375 42.6253L50.2917 35.667C47.2917 33.917 43.6667 33.917 40.6667 35.667C37.6667 37.417 35.875 40.5003 35.875 44.0003V57.9587C35.875 61.417 37.6667 64.542 40.6667 66.292C42.1667 67.167 43.8333 67.5837 45.4583 67.5837C47.125 67.5837 48.75 67.167 50.25 66.292L62.3333 59.3337C65.3333 57.5837 67.125 54.5003 67.125 51.0003C67.2083 47.5003 65.4167 44.3753 62.375 42.6253Z" fill="white"/>
</svg>
