<svg width="146" height="39" viewBox="0 0 146 39" fill="none" xmlns="http://www.w3.org/2000/svg">
<path d="M23.1438 18.0998C23.1051 13.8001 26.6669 11.7082 26.8298 11.6109C24.8126 8.67188 21.686 8.27032 20.5873 8.23831C17.9613 7.96215 15.4141 9.80851 14.0765 9.80851C12.7121 9.80851 10.6522 8.26499 8.43204 8.31035C5.57512 8.35437 2.90244 10.0073 1.4366 12.5741C-1.58853 17.8076 0.667632 25.4986 3.56594 29.7289C5.01575 31.8008 6.70988 34.114 8.92733 34.0327C11.0967 33.9433 11.9071 32.6506 14.525 32.6506C17.1189 32.6506 17.8799 34.0327 20.1414 33.9806C22.4697 33.9433 23.9355 31.8995 25.3346 29.809C27.01 27.4343 27.6829 25.0957 27.7096 24.9756C27.6548 24.9569 23.1879 23.2533 23.1438 18.0998Z" fill="white"/>
<path d="M18.8713 5.45504C20.0381 3.99689 20.8365 2.01312 20.6148 0C18.9261 0.0747083 16.8141 1.16732 15.5979 2.59344C14.5219 3.85014 13.5607 5.90996 13.809 7.84704C15.706 7.98845 17.6538 6.8905 18.8713 5.45504Z" fill="white"/>
<path d="M54.5373 33.7337H51.5055L49.8448 28.5188H44.0722L42.4902 33.7337H39.5385L45.2577 15.9798H48.7901L54.5373 33.7337ZM49.3442 26.3309L47.8423 21.695C47.6834 21.2214 47.3857 20.1061 46.9465 18.3505H46.8931C46.7182 19.1056 46.4365 20.2208 46.0494 21.695L44.5742 26.3309H49.3442Z" fill="white"/>
<path d="M69.2435 27.1762C69.2435 29.3534 68.6548 31.0744 67.4773 32.3378C66.4226 33.4624 65.113 34.024 63.5497 34.024C61.8622 34.024 60.65 33.4184 59.9118 32.207H59.8584V38.9508H57.0121V25.1471C57.0121 23.7783 56.9761 22.3735 56.9067 20.9327H59.4098L59.5687 22.9619H59.6221C60.5713 21.433 62.0118 20.6699 63.9448 20.6699C65.4561 20.6699 66.7177 21.2663 67.7269 22.4603C68.7389 23.6556 69.2435 25.2271 69.2435 27.1762ZM66.3439 27.2803C66.3439 26.0342 66.0635 25.007 65.5001 24.1986C64.8847 23.3554 64.0583 22.9338 63.0224 22.9338C62.3201 22.9338 61.682 23.1686 61.112 23.6316C60.5406 24.0985 60.1668 24.7082 59.9919 25.4633C59.9038 25.8155 59.8597 26.1036 59.8597 26.3304V28.4649C59.8597 29.3961 60.1454 30.1819 60.7168 30.8236C61.2882 31.4653 62.0304 31.7854 62.9436 31.7854C64.0156 31.7854 64.85 31.3719 65.4467 30.5474C66.0448 29.7216 66.3439 28.633 66.3439 27.2803Z" fill="white"/>
<path d="M83.9791 27.1762C83.9791 29.3534 83.3904 31.0744 82.2116 32.3378C81.1583 33.4624 79.8486 34.024 78.2853 34.024C76.5979 34.024 75.3857 33.4184 74.6488 32.207H74.5954V38.9508H71.7491V25.1471C71.7491 23.7783 71.7131 22.3735 71.6437 20.9327H74.1468L74.3057 22.9619H74.3591C75.3069 21.433 76.7474 20.6699 78.6818 20.6699C80.1917 20.6699 81.4533 21.2663 82.4652 22.4603C83.4732 23.6556 83.9791 25.2271 83.9791 27.1762ZM81.0795 27.2803C81.0795 26.0342 80.7978 25.007 80.2344 24.1986C79.619 23.3554 78.7953 22.9338 77.758 22.9338C77.0545 22.9338 76.4177 23.1686 75.8463 23.6316C75.2749 24.0985 74.9024 24.7082 74.7275 25.4633C74.6408 25.8155 74.5954 26.1036 74.5954 26.3304V28.4649C74.5954 29.3961 74.8811 30.1819 75.4498 30.8236C76.0212 31.4639 76.7634 31.7854 77.6792 31.7854C78.7513 31.7854 79.5856 31.3719 80.1824 30.5474C80.7805 29.7216 81.0795 28.633 81.0795 27.2803Z" fill="white"/>
<path d="M100.454 28.7555C100.454 30.2657 99.9298 31.4943 98.8765 32.4429C97.7191 33.4795 96.1077 33.9971 94.0371 33.9971C92.1254 33.9971 90.5928 33.6289 89.4327 32.8911L90.0922 30.5205C91.3417 31.2756 92.7128 31.6544 94.2067 31.6544C95.2787 31.6544 96.113 31.4116 96.7125 30.9287C97.3092 30.4458 97.6069 29.7974 97.6069 28.989C97.6069 28.2686 97.3613 27.6615 96.8687 27.1693C96.3787 26.677 95.5603 26.2194 94.4176 25.7965C91.307 24.6372 89.7531 22.9389 89.7531 20.7057C89.7531 19.2462 90.2977 18.0495 91.3885 17.1183C92.4751 16.1858 93.925 15.7202 95.7379 15.7202C97.3546 15.7202 98.6976 16.0017 99.7696 16.5634L99.0581 18.882C98.0568 18.3377 96.9247 18.0655 95.6578 18.0655C94.6565 18.0655 93.8742 18.3123 93.3135 18.8033C92.8396 19.2422 92.602 19.7772 92.602 20.4108C92.602 21.1126 92.873 21.6929 93.4177 22.1491C93.8916 22.5707 94.7527 23.027 96.0022 23.5192C97.5308 24.1342 98.6536 24.8533 99.3758 25.6778C100.095 26.4996 100.454 27.5281 100.454 28.7555Z" fill="white"/>
<path d="M109.863 23.0661H106.726V29.2816C106.726 30.8624 107.279 31.6522 108.387 31.6522C108.895 31.6522 109.317 31.6082 109.651 31.5201L109.73 33.68C109.169 33.8895 108.431 33.9948 107.516 33.9948C106.392 33.9948 105.514 33.652 104.88 32.9676C104.248 32.2819 103.931 31.1319 103.931 29.5164V23.0634H102.062V20.9289H103.931V18.5849L106.726 17.7418V20.9289H109.863V23.0661Z" fill="white"/>
<path d="M124.021 27.2289C124.021 29.1966 123.458 30.8122 122.334 32.0756C121.155 33.3763 119.59 34.0247 117.64 34.0247C115.76 34.0247 114.263 33.4016 113.147 32.1556C112.031 30.9096 111.473 29.3367 111.473 27.441C111.473 25.4572 112.047 23.8323 113.199 22.5689C114.349 21.3042 115.9 20.6719 117.851 20.6719C119.73 20.6719 121.243 21.2949 122.384 22.5423C123.476 23.7523 124.021 25.3145 124.021 27.2289ZM121.068 27.3209C121.068 26.1403 120.816 25.1277 120.304 24.2832C119.708 23.2613 118.854 22.7517 117.749 22.7517C116.605 22.7517 115.736 23.2627 115.139 24.2832C114.628 25.129 114.376 26.1576 114.376 27.3743C114.376 28.5549 114.628 29.5675 115.139 30.4106C115.755 31.4325 116.614 31.9422 117.724 31.9422C118.81 31.9422 119.664 31.4219 120.279 30.384C120.804 29.5235 121.068 28.5002 121.068 27.3209Z" fill="white"/>
<path d="M133.273 23.4341C132.991 23.3821 132.691 23.3554 132.375 23.3554C131.374 23.3554 130.6 23.733 130.055 24.4894C129.581 25.1564 129.344 25.9996 129.344 27.0175V33.7345H126.499L126.525 24.9643C126.525 23.4888 126.489 22.1454 126.419 20.9341H128.898L129.002 23.3834H129.081C129.381 22.5416 129.855 21.8639 130.504 21.3556C131.138 20.898 131.823 20.6699 132.561 20.6699C132.824 20.6699 133.062 20.6886 133.273 20.7219V23.4341Z" fill="white"/>
<path d="M146 26.7264C146 27.236 145.967 27.6656 145.896 28.0165H137.357C137.391 29.2812 137.803 30.2484 138.596 30.9154C139.316 31.5117 140.246 31.8106 141.389 31.8106C142.653 31.8106 143.807 31.6091 144.844 31.2049L145.29 33.1793C144.078 33.7076 142.646 33.9704 140.995 33.9704C139.009 33.9704 137.449 33.3861 136.315 32.2188C135.182 31.0515 134.615 29.4839 134.615 27.5175C134.615 25.5871 135.142 23.9795 136.198 22.6975C137.304 21.3287 138.798 20.6444 140.677 20.6444C142.524 20.6444 143.921 21.3287 144.871 22.6975C145.622 23.7848 146 25.1295 146 26.7264ZM143.286 25.9887C143.305 25.1455 143.119 24.4171 142.733 23.8021C142.241 23.011 141.484 22.6161 140.465 22.6161C139.535 22.6161 138.778 23.0017 138.2 23.7754C137.726 24.3904 137.444 25.1282 137.357 25.9873L143.286 25.9887Z" fill="white"/>
<path d="M48.4041 5.05741C48.4041 6.62762 47.9328 7.80961 46.9916 8.60339C46.1199 9.3358 44.881 9.70267 43.2763 9.70267C42.4806 9.70267 41.7998 9.66798 41.2297 9.59861V1.01916C41.9733 0.899098 42.7743 0.837731 43.6394 0.837731C45.168 0.837731 46.3201 1.16992 47.0971 1.83429C47.9675 2.58537 48.4041 3.6593 48.4041 5.05741ZM46.9289 5.0961C46.9289 4.0782 46.6592 3.29777 46.1199 2.75346C45.5805 2.21049 44.7929 1.93834 43.7556 1.93834C43.315 1.93834 42.9399 1.96769 42.6288 2.02906V8.55136C42.801 8.57804 43.1161 8.59005 43.574 8.59005C44.6447 8.59005 45.471 8.29255 46.0531 7.69755C46.6352 7.10255 46.9289 6.2354 46.9289 5.0961Z" fill="white"/>
<path d="M56.227 6.42979C56.227 7.397 55.9506 8.18944 55.3979 8.81112C54.8186 9.45014 54.0509 9.76899 53.0924 9.76899C52.1686 9.76899 51.433 9.46348 50.8843 8.84981C50.3369 8.23747 50.0633 7.46504 50.0633 6.53385C50.0633 5.55998 50.3449 4.76086 50.911 4.14052C51.477 3.52017 52.238 3.20933 53.1965 3.20933C54.1203 3.20933 54.8626 3.51484 55.4246 4.12718C55.9586 4.72218 56.227 5.4906 56.227 6.42979ZM54.7758 6.47515C54.7758 5.89483 54.6503 5.39722 54.4007 4.98232C54.107 4.48071 53.6891 4.2299 53.1458 4.2299C52.5838 4.2299 52.1565 4.48071 51.8628 4.98232C51.6119 5.39722 51.4877 5.90283 51.4877 6.5005C51.4877 7.08082 51.6132 7.57843 51.8628 7.99333C52.1659 8.49494 52.5878 8.74575 53.1324 8.74575C53.6664 8.74575 54.0856 8.49094 54.3873 7.97999C54.6463 7.55709 54.7758 7.05548 54.7758 6.47515Z" fill="white"/>
<path d="M66.7131 3.33912L64.7439 9.62796H63.4623L62.6466 6.8971C62.4397 6.21539 62.2715 5.53768 62.1407 4.86531H62.1153C61.9938 5.55636 61.8256 6.23273 61.6093 6.8971L60.7429 9.62796H59.4466L57.595 3.33912H59.0328L59.7443 6.32879C59.9165 7.03585 60.0581 7.70956 60.1715 8.34724H60.1969C60.301 7.82162 60.4732 7.15191 60.7162 6.34213L61.6093 3.34046H62.7494L63.6052 6.27809C63.8121 6.99449 63.9803 7.68421 64.1098 8.34858H64.1485C64.2433 7.70155 64.3862 7.01184 64.5757 6.27809L65.3393 3.34046H66.7131V3.33912Z" fill="white"/>
<path d="M73.9663 9.62631H72.5672V6.0243C72.5672 4.91435 72.1454 4.35938 71.299 4.35938C70.8838 4.35938 70.5487 4.51146 70.2884 4.81697C70.0307 5.12247 69.8999 5.48267 69.8999 5.8949V9.62498H68.5008V5.13448C68.5008 4.58217 68.4834 3.98317 68.4501 3.33481H69.6796L69.745 4.31802H69.7837C69.9466 4.01252 70.1896 3.76038 70.5086 3.55893C70.8878 3.32413 71.3123 3.2054 71.7769 3.2054C72.3643 3.2054 72.8529 3.39484 73.2414 3.77505C73.7247 4.24064 73.9663 4.9357 73.9663 5.85888V9.62631Z" fill="white"/>
<path d="M77.824 9.62674H76.4262V0.452296H77.824V9.62674Z" fill="white"/>
<path d="M86.0628 6.42979C86.0628 7.397 85.7864 8.18944 85.2337 8.81112C84.6544 9.45014 83.8854 9.76899 82.9282 9.76899C82.003 9.76899 81.2674 9.46348 80.7201 8.84981C80.1727 8.23747 79.899 7.46504 79.899 6.53385C79.899 5.55998 80.1807 4.76086 80.7468 4.14052C81.3128 3.52017 82.0738 3.20933 83.031 3.20933C83.9561 3.20933 84.6971 3.51484 85.2604 4.12718C85.7944 4.72218 86.0628 5.4906 86.0628 6.42979ZM84.6103 6.47515C84.6103 5.89483 84.4848 5.39722 84.2352 4.98232C83.9428 4.48071 83.5236 4.2299 82.9816 4.2299C82.4182 4.2299 81.991 4.48071 81.6986 4.98232C81.4477 5.39722 81.3235 5.90283 81.3235 6.5005C81.3235 7.08082 81.449 7.57843 81.6986 7.99333C82.0017 8.49494 82.4236 8.74575 82.9682 8.74575C83.5022 8.74575 83.9201 8.49094 84.2218 7.97999C84.4821 7.55709 84.6103 7.05548 84.6103 6.47515Z" fill="white"/>
<path d="M92.8332 9.62624H91.577L91.4728 8.90184H91.4341C91.0043 9.47949 90.3915 9.76899 89.5958 9.76899C89.0017 9.76899 88.5211 9.57821 88.1594 9.19934C87.8309 8.85514 87.6667 8.42691 87.6667 7.91862C87.6667 7.15019 87.9871 6.56453 88.6319 6.15898C89.2754 5.75342 90.1806 5.55464 91.346 5.56398V5.44658C91.346 4.61812 90.9108 4.20456 90.039 4.20456C89.4183 4.20456 88.8709 4.36064 88.3983 4.67015L88.114 3.7523C88.6987 3.39077 89.4209 3.20933 90.2727 3.20933C91.9174 3.20933 92.7424 4.07648 92.7424 5.81078V8.12674C92.7424 8.75509 92.7731 9.25537 92.8332 9.62624ZM91.3807 7.46504V6.49516C89.8375 6.46848 89.0658 6.89138 89.0658 7.76254C89.0658 8.09072 89.1539 8.33619 89.3342 8.50028C89.5144 8.66437 89.744 8.74575 90.0177 8.74575C90.3247 8.74575 90.6118 8.64836 90.8734 8.45492C91.1364 8.26015 91.298 8.01334 91.358 7.71051C91.3727 7.64247 91.3807 7.55976 91.3807 7.46504Z" fill="white"/>
<path d="M100.781 9.62674H99.5397L99.4742 8.61684H99.4355C99.039 9.38527 98.3635 9.76948 97.4143 9.76948C96.656 9.76948 96.0246 9.47198 95.524 8.87699C95.0233 8.28199 94.7737 7.50956 94.7737 6.56103C94.7737 5.54313 95.0447 4.71867 95.5894 4.08899C96.1167 3.50199 96.7628 3.2085 97.5318 3.2085C98.3769 3.2085 98.9683 3.49265 99.3047 4.06231H99.3314V0.452296H100.732V7.93246C100.732 8.5448 100.748 9.10911 100.781 9.62674ZM99.3314 6.97459V5.92601C99.3314 5.74458 99.318 5.59783 99.2927 5.48577C99.2139 5.14958 99.0444 4.86675 98.7867 4.63863C98.5264 4.4105 98.2127 4.29577 97.8509 4.29577C97.3289 4.29577 96.9204 4.50255 96.62 4.91745C96.3223 5.33235 96.1714 5.86197 96.1714 6.509C96.1714 7.13068 96.3143 7.63496 96.6013 8.02318C96.9044 8.43674 97.3129 8.64352 97.8242 8.64352C98.2834 8.64352 98.6505 8.47143 98.9296 8.1259C99.1992 7.80706 99.3314 7.42284 99.3314 6.97459Z" fill="white"/>
<path d="M112.748 6.42979C112.748 7.397 112.472 8.18944 111.919 8.81112C111.34 9.45014 110.574 9.76899 109.614 9.76899C108.691 9.76899 107.956 9.46348 107.406 8.84981C106.858 8.23747 106.585 7.46504 106.585 6.53385C106.585 5.55998 106.866 4.76086 107.432 4.14052C107.998 3.52017 108.759 3.20933 109.719 3.20933C110.642 3.20933 111.385 3.51484 111.946 4.12718C112.48 4.72218 112.748 5.4906 112.748 6.42979ZM111.298 6.47515C111.298 5.89483 111.173 5.39722 110.923 4.98232C110.628 4.48071 110.212 4.2299 109.667 4.2299C109.106 4.2299 108.679 4.48071 108.384 4.98232C108.133 5.39722 108.009 5.90283 108.009 6.5005C108.009 7.08082 108.134 7.57843 108.384 7.99333C108.687 8.49494 109.109 8.74575 109.654 8.74575C110.188 8.74575 110.608 8.49094 110.91 7.97999C111.168 7.55709 111.298 7.05548 111.298 6.47515Z" fill="white"/>
<path d="M120.272 9.62631H118.874V6.0243C118.874 4.91435 118.453 4.35938 117.605 4.35938C117.19 4.35938 116.855 4.51146 116.596 4.81697C116.337 5.12247 116.207 5.48267 116.207 5.8949V9.62498H114.807V5.13448C114.807 4.58217 114.791 3.98317 114.757 3.33481H115.985L116.051 4.31802H116.09C116.254 4.01252 116.497 3.76038 116.815 3.55893C117.195 3.32413 117.618 3.2054 118.084 3.2054C118.67 3.2054 119.159 3.39484 119.547 3.77505C120.032 4.24064 120.272 4.9357 120.272 5.85888V9.62631Z" fill="white"/>
<path d="M129.689 4.38527H128.148V7.44031C128.148 8.21674 128.422 8.60496 128.964 8.60496C129.215 8.60496 129.423 8.58361 129.588 8.53959L129.624 9.60018C129.347 9.70424 128.984 9.75627 128.537 9.75627C127.984 9.75627 127.554 9.58817 127.243 9.25199C126.931 8.9158 126.776 8.35015 126.776 7.55637V4.38527H125.856V3.33803H126.776V2.18538L128.147 1.77182V3.33669H129.688L129.689 4.38527Z" fill="white"/>
<path d="M137.095 9.62674H135.695V6.05141C135.695 4.92412 135.273 4.3598 134.428 4.3598C133.779 4.3598 133.336 4.68665 133.093 5.34035C133.052 5.47776 133.028 5.64585 133.028 5.8433V9.6254H131.63V0.452296H133.028V4.24241H133.054C133.495 3.55269 134.126 3.2085 134.945 3.2085C135.524 3.2085 136.003 3.39794 136.384 3.77815C136.858 4.25174 137.095 4.95614 137.095 5.88732V9.62674Z" fill="white"/>
<path d="M144.733 6.18453C144.733 6.43534 144.714 6.64612 144.681 6.81822H140.485C140.504 7.4399 140.704 7.91349 141.092 8.24168C141.448 8.53517 141.905 8.68192 142.466 8.68192C143.087 8.68192 143.653 8.5832 144.163 8.38442L144.382 9.35563C143.785 9.61444 143.083 9.74385 142.27 9.74385C141.295 9.74385 140.528 9.45702 139.972 8.88337C139.414 8.30971 139.138 7.53995 139.138 6.57408C139.138 5.62555 139.396 4.83578 139.915 4.2061C140.457 3.53372 141.19 3.19754 142.115 3.19754C143.02 3.19754 143.708 3.53372 144.172 4.2061C144.547 4.73973 144.733 5.40009 144.733 6.18453ZM143.398 5.823C143.409 5.4081 143.317 5.05057 143.127 4.74907C142.884 4.36085 142.514 4.16607 142.014 4.16607C141.557 4.16607 141.185 4.35551 140.9 4.73572C140.668 5.03856 140.53 5.40009 140.485 5.823H143.398Z" fill="white"/>
</svg>
