<svg width="70" height="70" viewBox="0 0 70 70" fill="none" xmlns="http://www.w3.org/2000/svg">
<path d="M26.9231 43.971C26.9231 47.9921 27.6051 51.8695 28.8974 55.4597C22.1487 55.0648 15.6872 52.8747 9.97949 49.0691C8.22051 47.8843 7.17949 45.9097 7.17949 43.8274V29.3948L26.0256 38.2985C26.5282 38.5139 27.0308 38.7293 27.5333 38.8729C27.1385 40.0936 26.9231 41.422 26.9231 42.7863V43.971ZM45.3744 24.8352C47.1333 23.8659 49.1436 23.3274 51.1538 23.3274C52.3744 23.3274 53.559 23.5069 54.7077 23.9018L59.7333 21.5322C61.6718 20.6347 62.8205 18.9473 62.8205 17.0445C62.8205 15.1417 61.6718 13.4543 59.6974 12.5567L34.4974 0.673163C32.5949 -0.224388 30.2256 -0.224388 28.3231 0.673163L3.12308 12.5567H3.08718C1.14872 13.4543 0 15.1417 0 17.0445C0 18.9473 1.14872 20.6347 3.12308 21.5322L28.3231 33.4158C28.9692 33.7389 29.6513 33.9184 30.3692 34.0262C31.159 33.0927 32.1641 32.3029 33.2769 31.6925L45.3744 24.8352ZM70 42.7934V43.971C70 56.228 62.5513 66.8909 51.8862 69.8995C51.6456 69.9677 51.3979 70 51.1538 70C50.9097 70 50.662 69.9641 50.4215 69.8995C39.7564 66.8909 32.3077 56.228 32.3077 43.971V42.7934C32.3077 40.0864 33.6897 37.6307 35.9118 36.3742L48.0272 29.542C49.98 28.4362 52.3169 28.4326 54.2841 29.542L66.3959 36.3742C68.618 37.6307 70 40.0864 70 42.7934ZM58.441 43.8633C57.3892 42.8114 55.6841 42.8114 54.6323 43.8633L49.3554 49.1409L47.6682 47.4535C46.6164 46.4016 44.9113 46.4016 43.8595 47.4535C42.8077 48.5055 42.8077 50.2108 43.8595 51.2627L47.4492 54.8529C47.9733 55.3771 48.6626 55.6428 49.3518 55.6428C50.041 55.6428 50.7303 55.3807 51.2544 54.8529L58.4338 47.6725C59.4856 46.6206 59.4856 44.9152 58.4338 43.8633H58.441Z" fill="#007C6F"/>
</svg>
