<svg width="24" height="24" viewBox="0 0 24 24" fill="none" xmlns="http://www.w3.org/2000/svg">
<path d="M24 19.5999C24 22.0259 22.026 24 19.5999 24C17.1738 24 15.1999 22.026 15.1999 19.5999C15.1999 19.1379 15.2729 18.6919 15.4059 18.2729L8.57102 13.3911C7.98704 15.137 6.34006 16.4001 4.40007 16.4001C1.97409 16.4001 0 14.4261 0 12C0 9.57388 1.97396 7.59992 4.40007 7.59992C6.34003 7.59992 7.98709 8.8629 8.57102 10.6089L15.4059 5.72705C15.2729 5.30806 15.1999 4.86206 15.1999 4.40007C15.1999 1.97409 17.1738 0 19.5999 0C22.026 0 24 1.97396 24 4.40007C24 6.82617 22.026 8.80013 19.5999 8.80013C18.2129 8.80013 16.976 8.15415 16.1691 7.14816L9.3762 12.0001L16.1691 16.852C16.976 15.846 18.213 15.2 19.5999 15.2C22.0259 15.2 24 17.1738 24 19.5999Z" fill="#101010"/>
</svg>
